<svg width="39" height="43" viewBox="0 0 39 43" fill="none" xmlns="http://www.w3.org/2000/svg">
<g style="mix-blend-mode:hard-light" filter="url(#filter0_f_128:113)">
<ellipse cx="19.5" cy="21.0272" rx="11.7" ry="12.6161" fill="#FF0000" fill-opacity="0.2"/>
</g>
<g style="mix-blend-mode:hard-light" filter="url(#filter1_f_128:113)">
<path d="M23.75 31.5405V27.6705C23.7875 27.1936 23.7231 26.7143 23.561 26.2643C23.3989 25.8142 23.1429 25.4039 22.81 25.0605C25.95 24.7105 29.25 23.5205 29.25 18.0605C29.2497 16.6643 28.7127 15.3217 27.75 14.3105C28.2059 13.089 28.1736 11.7388 27.66 10.5405C27.66 10.5405 26.48 10.1905 23.75 12.0205C21.458 11.3993 19.042 11.3993 16.75 12.0205C14.02 10.1905 12.84 10.5405 12.84 10.5405C12.3264 11.7388 12.2941 13.089 12.75 14.3105C11.7801 15.3292 11.2425 16.6839 11.25 18.0905C11.25 23.5105 14.55 24.7005 17.69 25.0905C17.361 25.4304 17.1073 25.8359 16.9453 26.2804C16.7834 26.7249 16.7168 27.1985 16.75 27.6705V31.5405M16.75 28.5405C11.75 30.0405 11.75 26.0405 9.75 25.5405L16.75 28.5405Z" stroke="#FF5C00" stroke-width="1.3" stroke-linecap="round" stroke-linejoin="round"/>
</g>
<g style="mix-blend-mode:hard-light" filter="url(#filter2_f_128:113)">
<path d="M23.75 31.5405V27.6705C23.7875 27.1936 23.7231 26.7143 23.561 26.2643C23.3989 25.8142 23.1429 25.4039 22.81 25.0605C25.95 24.7105 29.25 23.5205 29.25 18.0605C29.2497 16.6643 28.7127 15.3217 27.75 14.3105C28.2059 13.089 28.1736 11.7388 27.66 10.5405C27.66 10.5405 26.48 10.1905 23.75 12.0205C21.458 11.3993 19.042 11.3993 16.75 12.0205C14.02 10.1905 12.84 10.5405 12.84 10.5405C12.3264 11.7388 12.2941 13.089 12.75 14.3105C11.7801 15.3292 11.2425 16.6839 11.25 18.0905C11.25 23.5105 14.55 24.7005 17.69 25.0905C17.361 25.4304 17.1073 25.8359 16.9453 26.2804C16.7834 26.7249 16.7168 27.1985 16.75 27.6705V31.5405M16.75 28.5405C11.75 30.0405 11.75 26.0405 9.75 25.5405L16.75 28.5405Z" stroke="#FF0000" stroke-width="1.7" stroke-linecap="round" stroke-linejoin="round"/>
</g>
<g style="mix-blend-mode:hard-light" filter="url(#filter3_ddi_128:113)">
<path d="M23.75 31.5405V27.6705C23.7875 27.1936 23.7231 26.7143 23.561 26.2643C23.3989 25.8142 23.1429 25.4039 22.81 25.0605C25.95 24.7105 29.25 23.5205 29.25 18.0605C29.2497 16.6643 28.7127 15.3217 27.75 14.3105C28.2059 13.089 28.1736 11.7388 27.66 10.5405C27.66 10.5405 26.48 10.1905 23.75 12.0205C21.458 11.3993 19.042 11.3993 16.75 12.0205C14.02 10.1905 12.84 10.5405 12.84 10.5405C12.3264 11.7388 12.2941 13.089 12.75 14.3105C11.7801 15.3292 11.2425 16.6839 11.25 18.0905C11.25 23.5105 14.55 24.7005 17.69 25.0905C17.361 25.4304 17.1073 25.8359 16.9453 26.2804C16.7834 26.7249 16.7168 27.1985 16.75 27.6705V31.5405M16.75 28.5405C11.75 30.0405 11.75 26.0405 9.75 25.5405L16.75 28.5405Z" stroke="#FF0000" stroke-opacity="0.2" stroke-width="1.3" stroke-linecap="round" stroke-linejoin="round"/>
</g>
<g filter="url(#filter4_f_128:113)">
<path d="M23.75 31.5405V27.6705C23.7875 27.1936 23.7231 26.7143 23.561 26.2643C23.3989 25.8142 23.1429 25.4039 22.81 25.0605C25.95 24.7105 29.25 23.5205 29.25 18.0605C29.2497 16.6643 28.7127 15.3217 27.75 14.3105C28.2059 13.089 28.1736 11.7388 27.66 10.5405C27.66 10.5405 26.48 10.1905 23.75 12.0205C21.458 11.3993 19.042 11.3993 16.75 12.0205C14.02 10.1905 12.84 10.5405 12.84 10.5405C12.3264 11.7388 12.2941 13.089 12.75 14.3105C11.7801 15.3292 11.2425 16.6839 11.25 18.0905C11.25 23.5105 14.55 24.7005 17.69 25.0905C17.361 25.4304 17.1073 25.8359 16.9453 26.2804C16.7834 26.7249 16.7168 27.1985 16.75 27.6705V31.5405M16.75 28.5405C11.75 30.0405 11.75 26.0405 9.75 25.5405L16.75 28.5405Z" stroke="#FF9983" stroke-width="0.8" stroke-linecap="round" stroke-linejoin="round"/>
</g>
<g filter="url(#filter5_f_128:113)">
<path d="M23.75 31.5405V27.6705C23.7875 27.1936 23.7231 26.7143 23.561 26.2643C23.3989 25.8142 23.1429 25.4039 22.81 25.0605C25.95 24.7105 29.25 23.5205 29.25 18.0605C29.2497 16.6643 28.7127 15.3217 27.75 14.3105C28.2059 13.089 28.1736 11.7388 27.66 10.5405C27.66 10.5405 26.48 10.1905 23.75 12.0205C21.458 11.3993 19.042 11.3993 16.75 12.0205C14.02 10.1905 12.84 10.5405 12.84 10.5405C12.3264 11.7388 12.2941 13.089 12.75 14.3105C11.7801 15.3292 11.2425 16.6839 11.25 18.0905C11.25 23.5105 14.55 24.7005 17.69 25.0905C17.361 25.4304 17.1073 25.8359 16.9453 26.2804C16.7834 26.7249 16.7168 27.1985 16.75 27.6705V31.5405M16.75 28.5405C11.75 30.0405 11.75 26.0405 9.75 25.5405L16.75 28.5405Z" stroke="white" stroke-width="0.4" stroke-linecap="round" stroke-linejoin="round"/>
</g>
<defs>
<filter id="filter0_f_128:113" x="1.80005" y="2.41113" width="35.3999" height="37.2324" filterUnits="userSpaceOnUse" color-interpolation-filters="sRGB">
<feFlood flood-opacity="0" result="BackgroundImageFix"/>
<feBlend mode="normal" in="SourceGraphic" in2="BackgroundImageFix" result="shape"/>
<feGaussianBlur stdDeviation="3" result="effect1_foregroundBlur_128:113"/>
</filter>
<filter id="filter1_f_128:113" x="3.09985" y="3.86328" width="32.8" height="34.3271" filterUnits="userSpaceOnUse" color-interpolation-filters="sRGB">
<feFlood flood-opacity="0" result="BackgroundImageFix"/>
<feBlend mode="normal" in="SourceGraphic" in2="BackgroundImageFix" result="shape"/>
<feGaussianBlur stdDeviation="3" result="effect1_foregroundBlur_128:113"/>
</filter>
<filter id="filter2_f_128:113" x="6.8999" y="7.66406" width="25.2002" height="26.7266" filterUnits="userSpaceOnUse" color-interpolation-filters="sRGB">
<feFlood flood-opacity="0" result="BackgroundImageFix"/>
<feBlend mode="normal" in="SourceGraphic" in2="BackgroundImageFix" result="shape"/>
<feGaussianBlur stdDeviation="1" result="effect1_foregroundBlur_128:113"/>
</filter>
<filter id="filter3_ddi_128:113" x="6.49985" y="9.26328" width="26" height="27.5271" filterUnits="userSpaceOnUse" color-interpolation-filters="sRGB">
<feFlood flood-opacity="0" result="BackgroundImageFix"/>
<feColorMatrix in="SourceAlpha" type="matrix" values="0 0 0 0 0 0 0 0 0 0 0 0 0 0 0 0 0 0 127 0" result="hardAlpha"/>
<feOffset dy="1.3"/>
<feGaussianBlur stdDeviation="0.5"/>
<feColorMatrix type="matrix" values="0 0 0 0 0.15 0 0 0 0 0 0 0 0 0 0 0 0 0 0.7 0"/>
<feBlend mode="multiply" in2="BackgroundImageFix" result="effect1_dropShadow_128:113"/>
<feColorMatrix in="SourceAlpha" type="matrix" values="0 0 0 0 0 0 0 0 0 0 0 0 0 0 0 0 0 0 127 0" result="hardAlpha"/>
<feOffset dy="2"/>
<feGaussianBlur stdDeviation="1.3"/>
<feColorMatrix type="matrix" values="0 0 0 0 0.8 0 0 0 0 0.19 0 0 0 0 0.19 0 0 0 1 0"/>
<feBlend mode="color-dodge" in2="effect1_dropShadow_128:113" result="effect2_dropShadow_128:113"/>
<feBlend mode="normal" in="SourceGraphic" in2="effect2_dropShadow_128:113" result="shape"/>
<feColorMatrix in="SourceAlpha" type="matrix" values="0 0 0 0 0 0 0 0 0 0 0 0 0 0 0 0 0 0 127 0" result="hardAlpha"/>
<feOffset dx="-0.13" dy="0.26"/>
<feGaussianBlur stdDeviation="0.065"/>
<feComposite in2="hardAlpha" operator="arithmetic" k2="-1" k3="1"/>
<feColorMatrix type="matrix" values="0 0 0 0 1 0 0 0 0 1 0 0 0 0 1 0 0 0 0.5 0"/>
<feBlend mode="normal" in2="shape" result="effect3_innerShadow_128:113"/>
</filter>
<filter id="filter4_f_128:113" x="9.14985" y="9.91328" width="20.7" height="22.2271" filterUnits="userSpaceOnUse" color-interpolation-filters="sRGB">
<feFlood flood-opacity="0" result="BackgroundImageFix"/>
<feBlend mode="normal" in="SourceGraphic" in2="BackgroundImageFix" result="shape"/>
<feGaussianBlur stdDeviation="0.1" result="effect1_foregroundBlur_128:113"/>
</filter>
<filter id="filter5_f_128:113" x="9.41672" y="10.1801" width="20.1666" height="21.6934" filterUnits="userSpaceOnUse" color-interpolation-filters="sRGB">
<feFlood flood-opacity="0" result="BackgroundImageFix"/>
<feBlend mode="normal" in="SourceGraphic" in2="BackgroundImageFix" result="shape"/>
<feGaussianBlur stdDeviation="0.0666667" result="effect1_foregroundBlur_128:113"/>
</filter>
</defs>
</svg>
