<svg width="35" height="36" viewBox="0 0 35 36" fill="none" xmlns="http://www.w3.org/2000/svg">
<g style="mix-blend-mode:hard-light" filter="url(#filter0_f_128:111)">
<circle cx="9.0001" cy="8.99961" r="2.4" fill="#128DFF" fill-opacity="0.2"/>
</g>
<g style="mix-blend-mode:hard-light" filter="url(#filter1_f_128:111)">
<path d="M9 11C10.1046 11 11 10.1046 11 9C11 7.89543 10.1046 7 9 7C7.89543 7 7 7.89543 7 9C7 10.1046 7.89543 11 9 11Z" stroke="#0094FF" stroke-width="1.3" stroke-linecap="round" stroke-linejoin="round"/>
</g>
<g style="mix-blend-mode:hard-light" filter="url(#filter2_f_128:111)">
<path d="M9 11C10.1046 11 11 10.1046 11 9C11 7.89543 10.1046 7 9 7C7.89543 7 7 7.89543 7 9C7 10.1046 7.89543 11 9 11Z" stroke="#0094FF" stroke-width="1.7" stroke-linecap="round" stroke-linejoin="round"/>
</g>
<g style="mix-blend-mode:hard-light" filter="url(#filter3_ddi_128:111)">
<path d="M9 11C10.1046 11 11 10.1046 11 9C11 7.89543 10.1046 7 9 7C7.89543 7 7 7.89543 7 9C7 10.1046 7.89543 11 9 11Z" stroke="#00B3FF" stroke-opacity="0.2" stroke-width="1.3" stroke-linecap="round" stroke-linejoin="round"/>
</g>
<g filter="url(#filter4_f_128:111)">
<path d="M9 11C10.1046 11 11 10.1046 11 9C11 7.89543 10.1046 7 9 7C7.89543 7 7 7.89543 7 9C7 10.1046 7.89543 11 9 11Z" stroke="#82D9FF" stroke-width="0.8" stroke-linecap="round" stroke-linejoin="round"/>
</g>
<g filter="url(#filter5_f_128:111)">
<path d="M9 11C10.1046 11 11 10.1046 11 9C11 7.89543 10.1046 7 9 7C7.89543 7 7 7.89543 7 9C7 10.1046 7.89543 11 9 11Z" stroke="white" stroke-width="0.4" stroke-linecap="round" stroke-linejoin="round"/>
</g>
<g style="mix-blend-mode:hard-light" filter="url(#filter6_f_128:111)">
<ellipse cx="21" cy="22.0002" rx="7.2" ry="7.8" fill="#128DFF" fill-opacity="0.2"/>
</g>
<g style="mix-blend-mode:hard-light" filter="url(#filter7_f_128:111)">
<path d="M21 15.5C22.5913 15.5 24.1174 16.1321 25.2426 17.2574C26.3679 18.3826 27 19.9087 27 21.5V28.5H23V21.5C23 20.9696 22.7893 20.4609 22.4142 20.0858C22.0391 19.7107 21.5304 19.5 21 19.5C20.4696 19.5 19.9609 19.7107 19.5858 20.0858C19.2107 20.4609 19 20.9696 19 21.5V28.5H15V21.5C15 19.9087 15.6321 18.3826 16.7574 17.2574C17.8826 16.1321 19.4087 15.5 21 15.5V15.5Z" stroke="#0094FF" stroke-width="1.3" stroke-linecap="round" stroke-linejoin="round"/>
</g>
<g style="mix-blend-mode:hard-light" filter="url(#filter8_f_128:111)">
<path d="M21 15.5C22.5913 15.5 24.1174 16.1321 25.2426 17.2574C26.3679 18.3826 27 19.9087 27 21.5V28.5H23V21.5C23 20.9696 22.7893 20.4609 22.4142 20.0858C22.0391 19.7107 21.5304 19.5 21 19.5C20.4696 19.5 19.9609 19.7107 19.5858 20.0858C19.2107 20.4609 19 20.9696 19 21.5V28.5H15V21.5C15 19.9087 15.6321 18.3826 16.7574 17.2574C17.8826 16.1321 19.4087 15.5 21 15.5V15.5Z" stroke="#0094FF" stroke-width="1.7" stroke-linecap="round" stroke-linejoin="round"/>
</g>
<g style="mix-blend-mode:hard-light" filter="url(#filter9_ddi_128:111)">
<path d="M21 15.5C22.5913 15.5 24.1174 16.1321 25.2426 17.2574C26.3679 18.3826 27 19.9087 27 21.5V28.5H23V21.5C23 20.9696 22.7893 20.4609 22.4142 20.0858C22.0391 19.7107 21.5304 19.5 21 19.5C20.4696 19.5 19.9609 19.7107 19.5858 20.0858C19.2107 20.4609 19 20.9696 19 21.5V28.5H15V21.5C15 19.9087 15.6321 18.3826 16.7574 17.2574C17.8826 16.1321 19.4087 15.5 21 15.5V15.5Z" stroke="#00B3FF" stroke-opacity="0.2" stroke-width="1.3" stroke-linecap="round" stroke-linejoin="round"/>
</g>
<g filter="url(#filter10_f_128:111)">
<path d="M21 15.5C22.5913 15.5 24.1174 16.1321 25.2426 17.2574C26.3679 18.3826 27 19.9087 27 21.5V28.5H23V21.5C23 20.9696 22.7893 20.4609 22.4142 20.0858C22.0391 19.7107 21.5304 19.5 21 19.5C20.4696 19.5 19.9609 19.7107 19.5858 20.0858C19.2107 20.4609 19 20.9696 19 21.5V28.5H15V21.5C15 19.9087 15.6321 18.3826 16.7574 17.2574C17.8826 16.1321 19.4087 15.5 21 15.5V15.5Z" stroke="#82D9FF" stroke-width="0.8" stroke-linecap="round" stroke-linejoin="round"/>
</g>
<g filter="url(#filter11_f_128:111)">
<path d="M21 15.5C22.5913 15.5 24.1174 16.1321 25.2426 17.2574C26.3679 18.3826 27 19.9087 27 21.5V28.5H23V21.5C23 20.9696 22.7893 20.4609 22.4142 20.0858C22.0391 19.7107 21.5304 19.5 21 19.5C20.4696 19.5 19.9609 19.7107 19.5858 20.0858C19.2107 20.4609 19 20.9696 19 21.5V28.5H15V21.5C15 19.9087 15.6321 18.3826 16.7574 17.2574C17.8826 16.1321 19.4087 15.5 21 15.5V15.5Z" stroke="white" stroke-width="0.4" stroke-linecap="round" stroke-linejoin="round"/>
</g>
<g style="mix-blend-mode:hard-light" filter="url(#filter12_f_128:111)">
<ellipse cx="9.0001" cy="21.9998" rx="2.4" ry="7.2" fill="#128DFF" fill-opacity="0.2"/>
</g>
<g style="mix-blend-mode:hard-light" filter="url(#filter13_f_128:111)">
<path d="M11 16H7V28H11V16Z" stroke="#0094FF" stroke-width="1.3" stroke-linecap="round" stroke-linejoin="round"/>
</g>
<g style="mix-blend-mode:hard-light" filter="url(#filter14_f_128:111)">
<path d="M11 16H7V28H11V16Z" stroke="#0094FF" stroke-width="1.7" stroke-linecap="round" stroke-linejoin="round"/>
</g>
<g style="mix-blend-mode:hard-light" filter="url(#filter15_ddi_128:111)">
<path d="M11 16H7V28H11V16Z" stroke="#00B3FF" stroke-opacity="0.2" stroke-width="1.3" stroke-linecap="round" stroke-linejoin="round"/>
</g>
<g filter="url(#filter16_f_128:111)">
<path d="M11 16H7V28H11V16Z" stroke="#82D9FF" stroke-width="0.8" stroke-linecap="round" stroke-linejoin="round"/>
</g>
<g filter="url(#filter17_f_128:111)">
<path d="M11 16H7V28H11V16Z" stroke="white" stroke-width="0.4" stroke-linecap="round" stroke-linejoin="round"/>
</g>
<defs>
<filter id="filter0_f_128:111" x="0.600098" y="0.599609" width="16.8" height="16.7998" filterUnits="userSpaceOnUse" color-interpolation-filters="sRGB">
<feFlood flood-opacity="0" result="BackgroundImageFix"/>
<feBlend mode="normal" in="SourceGraphic" in2="BackgroundImageFix" result="shape"/>
<feGaussianBlur stdDeviation="3" result="effect1_foregroundBlur_128:111"/>
</filter>
<filter id="filter1_f_128:111" x="0.350098" y="0.349609" width="17.2998" height="17.3008" filterUnits="userSpaceOnUse" color-interpolation-filters="sRGB">
<feFlood flood-opacity="0" result="BackgroundImageFix"/>
<feBlend mode="normal" in="SourceGraphic" in2="BackgroundImageFix" result="shape"/>
<feGaussianBlur stdDeviation="3" result="effect1_foregroundBlur_128:111"/>
</filter>
<filter id="filter2_f_128:111" x="4.1499" y="4.15039" width="9.7002" height="9.69922" filterUnits="userSpaceOnUse" color-interpolation-filters="sRGB">
<feFlood flood-opacity="0" result="BackgroundImageFix"/>
<feBlend mode="normal" in="SourceGraphic" in2="BackgroundImageFix" result="shape"/>
<feGaussianBlur stdDeviation="1" result="effect1_foregroundBlur_128:111"/>
</filter>
<filter id="filter3_ddi_128:111" x="3.7501" y="5.74961" width="10.4998" height="10.5008" filterUnits="userSpaceOnUse" color-interpolation-filters="sRGB">
<feFlood flood-opacity="0" result="BackgroundImageFix"/>
<feColorMatrix in="SourceAlpha" type="matrix" values="0 0 0 0 0 0 0 0 0 0 0 0 0 0 0 0 0 0 127 0" result="hardAlpha"/>
<feOffset dy="1.3"/>
<feGaussianBlur stdDeviation="0.5"/>
<feColorMatrix type="matrix" values="0 0 0 0 0 0 0 0 0 0.051 0 0 0 0 0.082 0 0 0 0.7 0"/>
<feBlend mode="multiply" in2="BackgroundImageFix" result="effect1_dropShadow_128:111"/>
<feColorMatrix in="SourceAlpha" type="matrix" values="0 0 0 0 0 0 0 0 0 0 0 0 0 0 0 0 0 0 127 0" result="hardAlpha"/>
<feOffset dy="2"/>
<feGaussianBlur stdDeviation="1.3"/>
<feColorMatrix type="matrix" values="0 0 0 0 0 0 0 0 0 0.4 0 0 0 0 1 0 0 0 1 0"/>
<feBlend mode="color-dodge" in2="effect1_dropShadow_128:111" result="effect2_dropShadow_128:111"/>
<feBlend mode="normal" in="SourceGraphic" in2="effect2_dropShadow_128:111" result="shape"/>
<feColorMatrix in="SourceAlpha" type="matrix" values="0 0 0 0 0 0 0 0 0 0 0 0 0 0 0 0 0 0 127 0" result="hardAlpha"/>
<feOffset dx="-0.13" dy="0.26"/>
<feGaussianBlur stdDeviation="0.065"/>
<feComposite in2="hardAlpha" operator="arithmetic" k2="-1" k3="1"/>
<feColorMatrix type="matrix" values="0 0 0 0 1 0 0 0 0 1 0 0 0 0 1 0 0 0 0.5 0"/>
<feBlend mode="normal" in2="shape" result="effect3_innerShadow_128:111"/>
</filter>
<filter id="filter4_f_128:111" x="6.4001" y="6.39961" width="5.1998" height="5.20078" filterUnits="userSpaceOnUse" color-interpolation-filters="sRGB">
<feFlood flood-opacity="0" result="BackgroundImageFix"/>
<feBlend mode="normal" in="SourceGraphic" in2="BackgroundImageFix" result="shape"/>
<feGaussianBlur stdDeviation="0.1" result="effect1_foregroundBlur_128:111"/>
</filter>
<filter id="filter5_f_128:111" x="6.66672" y="6.66647" width="4.66657" height="4.66706" filterUnits="userSpaceOnUse" color-interpolation-filters="sRGB">
<feFlood flood-opacity="0" result="BackgroundImageFix"/>
<feBlend mode="normal" in="SourceGraphic" in2="BackgroundImageFix" result="shape"/>
<feGaussianBlur stdDeviation="0.0666667" result="effect1_foregroundBlur_128:111"/>
</filter>
<filter id="filter6_f_128:111" x="7.80005" y="8.2002" width="26.3999" height="27.5996" filterUnits="userSpaceOnUse" color-interpolation-filters="sRGB">
<feFlood flood-opacity="0" result="BackgroundImageFix"/>
<feBlend mode="normal" in="SourceGraphic" in2="BackgroundImageFix" result="shape"/>
<feGaussianBlur stdDeviation="3" result="effect1_foregroundBlur_128:111"/>
</filter>
<filter id="filter7_f_128:111" x="8.3501" y="8.84961" width="25.2998" height="26.3008" filterUnits="userSpaceOnUse" color-interpolation-filters="sRGB">
<feFlood flood-opacity="0" result="BackgroundImageFix"/>
<feBlend mode="normal" in="SourceGraphic" in2="BackgroundImageFix" result="shape"/>
<feGaussianBlur stdDeviation="3" result="effect1_foregroundBlur_128:111"/>
</filter>
<filter id="filter8_f_128:111" x="12.1499" y="12.6504" width="17.7002" height="18.6992" filterUnits="userSpaceOnUse" color-interpolation-filters="sRGB">
<feFlood flood-opacity="0" result="BackgroundImageFix"/>
<feBlend mode="normal" in="SourceGraphic" in2="BackgroundImageFix" result="shape"/>
<feGaussianBlur stdDeviation="1" result="effect1_foregroundBlur_128:111"/>
</filter>
<filter id="filter9_ddi_128:111" x="11.7501" y="14.2496" width="18.4998" height="19.5008" filterUnits="userSpaceOnUse" color-interpolation-filters="sRGB">
<feFlood flood-opacity="0" result="BackgroundImageFix"/>
<feColorMatrix in="SourceAlpha" type="matrix" values="0 0 0 0 0 0 0 0 0 0 0 0 0 0 0 0 0 0 127 0" result="hardAlpha"/>
<feOffset dy="1.3"/>
<feGaussianBlur stdDeviation="0.5"/>
<feColorMatrix type="matrix" values="0 0 0 0 0 0 0 0 0 0.051 0 0 0 0 0.082 0 0 0 0.7 0"/>
<feBlend mode="multiply" in2="BackgroundImageFix" result="effect1_dropShadow_128:111"/>
<feColorMatrix in="SourceAlpha" type="matrix" values="0 0 0 0 0 0 0 0 0 0 0 0 0 0 0 0 0 0 127 0" result="hardAlpha"/>
<feOffset dy="2"/>
<feGaussianBlur stdDeviation="1.3"/>
<feColorMatrix type="matrix" values="0 0 0 0 0 0 0 0 0 0.4 0 0 0 0 1 0 0 0 1 0"/>
<feBlend mode="color-dodge" in2="effect1_dropShadow_128:111" result="effect2_dropShadow_128:111"/>
<feBlend mode="normal" in="SourceGraphic" in2="effect2_dropShadow_128:111" result="shape"/>
<feColorMatrix in="SourceAlpha" type="matrix" values="0 0 0 0 0 0 0 0 0 0 0 0 0 0 0 0 0 0 127 0" result="hardAlpha"/>
<feOffset dx="-0.13" dy="0.26"/>
<feGaussianBlur stdDeviation="0.065"/>
<feComposite in2="hardAlpha" operator="arithmetic" k2="-1" k3="1"/>
<feColorMatrix type="matrix" values="0 0 0 0 1 0 0 0 0 1 0 0 0 0 1 0 0 0 0.5 0"/>
<feBlend mode="normal" in2="shape" result="effect3_innerShadow_128:111"/>
</filter>
<filter id="filter10_f_128:111" x="14.4001" y="14.8996" width="13.1998" height="14.2008" filterUnits="userSpaceOnUse" color-interpolation-filters="sRGB">
<feFlood flood-opacity="0" result="BackgroundImageFix"/>
<feBlend mode="normal" in="SourceGraphic" in2="BackgroundImageFix" result="shape"/>
<feGaussianBlur stdDeviation="0.1" result="effect1_foregroundBlur_128:111"/>
</filter>
<filter id="filter11_f_128:111" x="14.6667" y="15.1665" width="12.6666" height="13.6671" filterUnits="userSpaceOnUse" color-interpolation-filters="sRGB">
<feFlood flood-opacity="0" result="BackgroundImageFix"/>
<feBlend mode="normal" in="SourceGraphic" in2="BackgroundImageFix" result="shape"/>
<feGaussianBlur stdDeviation="0.0666667" result="effect1_foregroundBlur_128:111"/>
</filter>
<filter id="filter12_f_128:111" x="0.600098" y="8.7998" width="16.8" height="26.4004" filterUnits="userSpaceOnUse" color-interpolation-filters="sRGB">
<feFlood flood-opacity="0" result="BackgroundImageFix"/>
<feBlend mode="normal" in="SourceGraphic" in2="BackgroundImageFix" result="shape"/>
<feGaussianBlur stdDeviation="3" result="effect1_foregroundBlur_128:111"/>
</filter>
<filter id="filter13_f_128:111" x="0.350098" y="9.34961" width="17.2998" height="25.3008" filterUnits="userSpaceOnUse" color-interpolation-filters="sRGB">
<feFlood flood-opacity="0" result="BackgroundImageFix"/>
<feBlend mode="normal" in="SourceGraphic" in2="BackgroundImageFix" result="shape"/>
<feGaussianBlur stdDeviation="3" result="effect1_foregroundBlur_128:111"/>
</filter>
<filter id="filter14_f_128:111" x="4.1499" y="13.1504" width="9.7002" height="17.6992" filterUnits="userSpaceOnUse" color-interpolation-filters="sRGB">
<feFlood flood-opacity="0" result="BackgroundImageFix"/>
<feBlend mode="normal" in="SourceGraphic" in2="BackgroundImageFix" result="shape"/>
<feGaussianBlur stdDeviation="1" result="effect1_foregroundBlur_128:111"/>
</filter>
<filter id="filter15_ddi_128:111" x="3.7501" y="14.7496" width="10.4998" height="18.5008" filterUnits="userSpaceOnUse" color-interpolation-filters="sRGB">
<feFlood flood-opacity="0" result="BackgroundImageFix"/>
<feColorMatrix in="SourceAlpha" type="matrix" values="0 0 0 0 0 0 0 0 0 0 0 0 0 0 0 0 0 0 127 0" result="hardAlpha"/>
<feOffset dy="1.3"/>
<feGaussianBlur stdDeviation="0.5"/>
<feColorMatrix type="matrix" values="0 0 0 0 0 0 0 0 0 0.051 0 0 0 0 0.082 0 0 0 0.7 0"/>
<feBlend mode="multiply" in2="BackgroundImageFix" result="effect1_dropShadow_128:111"/>
<feColorMatrix in="SourceAlpha" type="matrix" values="0 0 0 0 0 0 0 0 0 0 0 0 0 0 0 0 0 0 127 0" result="hardAlpha"/>
<feOffset dy="2"/>
<feGaussianBlur stdDeviation="1.3"/>
<feColorMatrix type="matrix" values="0 0 0 0 0 0 0 0 0 0.4 0 0 0 0 1 0 0 0 1 0"/>
<feBlend mode="color-dodge" in2="effect1_dropShadow_128:111" result="effect2_dropShadow_128:111"/>
<feBlend mode="normal" in="SourceGraphic" in2="effect2_dropShadow_128:111" result="shape"/>
<feColorMatrix in="SourceAlpha" type="matrix" values="0 0 0 0 0 0 0 0 0 0 0 0 0 0 0 0 0 0 127 0" result="hardAlpha"/>
<feOffset dx="-0.13" dy="0.26"/>
<feGaussianBlur stdDeviation="0.065"/>
<feComposite in2="hardAlpha" operator="arithmetic" k2="-1" k3="1"/>
<feColorMatrix type="matrix" values="0 0 0 0 1 0 0 0 0 1 0 0 0 0 1 0 0 0 0.5 0"/>
<feBlend mode="normal" in2="shape" result="effect3_innerShadow_128:111"/>
</filter>
<filter id="filter16_f_128:111" x="6.4001" y="15.3996" width="5.1998" height="13.2008" filterUnits="userSpaceOnUse" color-interpolation-filters="sRGB">
<feFlood flood-opacity="0" result="BackgroundImageFix"/>
<feBlend mode="normal" in="SourceGraphic" in2="BackgroundImageFix" result="shape"/>
<feGaussianBlur stdDeviation="0.1" result="effect1_foregroundBlur_128:111"/>
</filter>
<filter id="filter17_f_128:111" x="6.66672" y="15.6665" width="4.66657" height="12.6671" filterUnits="userSpaceOnUse" color-interpolation-filters="sRGB">
<feFlood flood-opacity="0" result="BackgroundImageFix"/>
<feBlend mode="normal" in="SourceGraphic" in2="BackgroundImageFix" result="shape"/>
<feGaussianBlur stdDeviation="0.0666667" result="effect1_foregroundBlur_128:111"/>
</filter>
</defs>
</svg>
